<svg width="41" height="40" viewBox="0 0 41 40" fill="none" xmlns="http://www.w3.org/2000/svg">
<path d="M8.83435 31.25V8.75C8.83435 7.75544 9.22944 6.80161 9.9327 6.09835C10.636 5.39509 11.5898 5 12.5843 5H31.3343C31.7322 5 32.1137 5.15804 32.395 5.43934C32.6763 5.72064 32.8343 6.10217 32.8343 6.5V33.5C32.8343 33.8978 32.6763 34.2793 32.395 34.5606C32.1137 34.842 31.7322 35 31.3343 35H12.5843C11.5898 35 10.636 34.6049 9.9327 33.9016C9.22944 33.1984 8.83435 32.2445 8.83435 31.25ZM8.83435 31.25C8.83435 30.2554 9.22944 29.3016 9.9327 28.5983C10.636 27.8951 11.5898 27.5 12.5843 27.5H32.8343" stroke="#0A4B98" stroke-width="2" stroke-linecap="round" stroke-linejoin="round"/>
</svg>
