<svg width="41" height="40" viewBox="0 0 41 40" fill="none" xmlns="http://www.w3.org/2000/svg">
<path d="M17.8344 18.375L35.7094 19.8375C36.1115 19.9166 36.469 20.1447 36.7101 20.4762C36.9511 20.8077 37.058 21.218 37.0093 21.625L35.9287 28.3818C35.8676 28.7635 35.6724 29.111 35.3782 29.3618C35.0839 29.6126 34.7099 29.7502 34.3232 29.75H34.0844M27.5844 29.75H19.4594" stroke="#0A4B98" stroke-width="2" stroke-linecap="round" stroke-linejoin="round"/>
<path d="M30.8344 8.625C30.4034 8.625 29.99 8.79621 29.6853 9.10095C29.3806 9.4057 29.2094 9.81902 29.2094 10.25V19.3061M6.45935 7H19.669C20.0612 7.00022 20.4402 7.14232 20.7358 7.40007C21.0315 7.65782 21.224 8.01382 21.2777 8.40237L22.7094 18.7748M8.08435 18.375V7M12.9594 24.875H12.9756M14.5844 16.9125V7" stroke="#0A4B98" stroke-width="2" stroke-linecap="round" stroke-linejoin="round"/>
<path d="M30.8344 33C32.6293 33 34.0844 31.5449 34.0844 29.75C34.0844 27.9551 32.6293 26.5 30.8344 26.5C29.0394 26.5 27.5844 27.9551 27.5844 29.75C27.5844 31.5449 29.0394 33 30.8344 33Z" stroke="#0A4B98" stroke-width="2" stroke-linecap="round" stroke-linejoin="round"/>
<path d="M12.9594 33C17.4467 33 21.0844 29.3623 21.0844 24.875C21.0844 20.3877 17.4467 16.75 12.9594 16.75C8.47204 16.75 4.83435 20.3877 4.83435 24.875C4.83435 29.3623 8.47204 33 12.9594 33Z" stroke="#0A4B98" stroke-width="2" stroke-linecap="round" stroke-linejoin="round"/>
</svg>
