<svg width="41" height="41" viewBox="0 0 41 41" fill="none" xmlns="http://www.w3.org/2000/svg">
<path d="M20.8349 23.1111C22.5531 23.1111 23.946 21.7182 23.946 20C23.946 18.2818 22.5531 16.8889 20.8349 16.8889C19.1166 16.8889 17.7238 18.2818 17.7238 20C17.7238 21.7182 19.1166 23.1111 20.8349 23.1111Z" stroke="#0A4B98" stroke-width="2" stroke-linecap="round" stroke-linejoin="round"/>
<path d="M20.835 4.44446V10.6667M12.7461 24.6667L7.30164 27.7778M34.3683 12.2222L28.9238 15.3333M12.7461 15.3333L7.30164 12.2222M34.3683 27.7778L28.9238 24.6667M16.1683 35.5556L20.835 23.1111L25.5016 35.5556M14.6127 35.5556H27.0572" stroke="#0A4B98" stroke-width="2" stroke-linecap="round" stroke-linejoin="round"/>
<path d="M30.1683 30.4222C32.2816 28.532 33.7712 26.0446 34.44 23.2893C35.1087 20.5339 34.9251 17.6405 33.9134 14.9918C32.9016 12.3431 31.1095 10.064 28.7742 8.45607C26.4388 6.84818 23.6703 5.98727 20.835 5.98727C17.9996 5.98727 15.2311 6.84818 12.8957 8.45607C10.5604 10.064 8.76827 12.3431 7.75655 14.9918C6.74484 17.6405 6.5612 20.5339 7.22994 23.2893C7.89868 26.0446 9.38828 28.532 11.5016 30.4222" stroke="#0A4B98" stroke-width="2" stroke-linecap="round" stroke-linejoin="round"/>
</svg>
