<svg width="41" height="41" viewBox="0 0 41 41" fill="none" xmlns="http://www.w3.org/2000/svg">
<path d="M35.8344 12.5014L32.5011 15.8347L30.0012 9.66811C29.7654 9.03702 29.3439 8.49218 28.7923 8.1054C28.2407 7.71863 27.5849 7.50807 26.9112 7.50149H14.8348C14.1556 7.48589 13.4879 7.67817 12.9211 8.05259C12.3543 8.427 11.9154 8.96567 11.6632 9.59645L9.16823 15.8347L5.83496 12.5014M12.5015 22.5012H12.5182M29.1678 22.5012H29.1845" stroke="#0A4B98" stroke-width="2" stroke-linecap="round" stroke-linejoin="round"/>
<path d="M32.5011 15.8347H9.16823C7.32732 15.8347 5.83496 17.327 5.83496 19.1679V25.8345C5.83496 27.6754 7.32732 29.1677 9.16823 29.1677H32.5011C34.342 29.1677 35.8344 27.6754 35.8344 25.8345V19.1679C35.8344 17.327 34.342 15.8347 32.5011 15.8347Z" stroke="#0A4B98" stroke-width="2" stroke-linecap="round" stroke-linejoin="round"/>
<path d="M9.16833 29.1678V32.501M32.5012 29.1678V32.501" stroke="#0A4B98" stroke-width="2" stroke-linecap="round" stroke-linejoin="round"/>
</svg>
