<svg width="41" height="40" viewBox="0 0 41 40" fill="none" xmlns="http://www.w3.org/2000/svg">
<path d="M20.835 13.601L30.4283 8.80049L20.835 4V20.0016" stroke="#0A4B98" stroke-width="2" stroke-linecap="round" stroke-linejoin="round"/>
<path d="M14.4394 19.9856L5.64552 25.0101C5.39945 25.1497 5.19478 25.3521 5.05238 25.5967C4.90999 25.8412 4.83496 26.1192 4.83496 26.4023C4.83496 26.6853 4.90999 26.9633 5.05238 27.2079C5.19478 27.4525 5.39945 27.6549 5.64552 27.7944L19.2361 35.5712C19.7222 35.8521 20.2736 36 20.835 36C21.3963 36 21.9477 35.8521 22.4339 35.5712L36.0244 27.7944C36.2705 27.6549 36.4751 27.4525 36.6175 27.2079C36.7599 26.9633 36.835 26.6853 36.835 26.4023C36.835 26.1192 36.7599 25.8412 36.6175 25.5967C36.4751 25.3521 36.2705 25.1497 36.0244 25.0101L27.2305 20.0016M12.0251 21.3618L29.6448 31.4428M29.6448 21.3618L12.0411 31.4428" stroke="#0A4B98" stroke-width="2" stroke-linecap="round" stroke-linejoin="round"/>
</svg>
