<svg width="41" height="40" viewBox="0 0 41 40" fill="none" xmlns="http://www.w3.org/2000/svg">
<path d="M35.1443 24.5H28.3343C27.5387 24.5 26.7756 24.8161 26.213 25.3787C25.6504 25.9413 25.3343 26.7044 25.3343 27.5V34.31M13.3343 7.01001V9.50001C13.3343 10.6935 13.8084 11.8381 14.6523 12.682C15.4962 13.5259 16.6408 14 17.8343 14C18.63 14 19.393 14.3161 19.9556 14.8787C20.5182 15.4413 20.8343 16.2044 20.8343 17C20.8343 18.65 22.1843 20 23.8343 20C24.63 20 25.393 19.6839 25.9556 19.1213C26.5182 18.5587 26.8343 17.7957 26.8343 17C26.8343 15.35 28.1843 14 29.8343 14H34.5893M19.3343 34.925V29C19.3343 28.2044 19.0182 27.4413 18.4556 26.8787C17.893 26.3161 17.13 26 16.3343 26C15.5387 26 14.7756 25.6839 14.213 25.1213C13.6504 24.5587 13.3343 23.7957 13.3343 23V21.5C13.3343 20.7044 13.0182 19.9413 12.4556 19.3787C11.893 18.8161 11.13 18.5 10.3343 18.5H5.9093" stroke="#0A4B98" stroke-width="2" stroke-linecap="round" stroke-linejoin="round"/>
<path d="M20.8344 35C29.1186 35 35.8344 28.2843 35.8344 20C35.8344 11.7157 29.1186 5 20.8344 5C12.5501 5 5.83435 11.7157 5.83435 20C5.83435 28.2843 12.5501 35 20.8344 35Z" stroke="#0A4B98" stroke-width="2" stroke-linecap="round" stroke-linejoin="round"/>
</svg>
