<svg width="41" height="40" viewBox="0 0 41 40" fill="none" xmlns="http://www.w3.org/2000/svg">
<path d="M11 35H31M17 35C28 30.3125 18.6 23 23 16.25M23 16.25C22.9081 13.599 23.6752 10.9842 25.2 8.75C27 6.875 29.6 5.1875 35 5C34.8 9.3125 33.6 11.75 31.6 13.625C29.6 15.125 26.8 16.0625 23 16.25ZM16 15.125C18.2 16.625 19.6 19.25 20.6 22.0625C16.6 22.8125 13.6 22.8125 11 21.5C8.6 20.375 6.4 17.9375 5 13.625C10.6 12.6875 13.8 13.625 16 15.125Z" stroke="#0A4B98" stroke-width="2" stroke-linecap="round" stroke-linejoin="round"/>
</svg>
