<svg width="34" height="34" viewBox="0 0 34 34" fill="none" xmlns="http://www.w3.org/2000/svg">
<path d="M33 5.8C33 8.45097 25.8366 10.6 17 10.6C8.16344 10.6 1 8.45097 1 5.8M33 5.8C33 3.14903 25.8366 1 17 1C8.16344 1 1 3.14903 1 5.8M33 5.8V28.2C33 29.473 31.3143 30.6939 28.3137 31.5941C25.3131 32.4943 21.2435 33 17 33C12.7565 33 8.68687 32.4943 5.68629 31.5941C2.68571 30.6939 1 29.473 1 28.2V5.8M1 17C1 18.273 2.68571 19.4939 5.68629 20.3941C8.68687 21.2943 12.7565 21.8 17 21.8C21.2435 21.8 25.3131 21.2943 28.3137 20.3941C31.3143 19.4939 33 18.273 33 17" stroke="#4488DA" stroke-width="2" stroke-linecap="round" stroke-linejoin="round"/>
</svg>
