<svg width="34" height="34" viewBox="0 0 34 34" fill="none" xmlns="http://www.w3.org/2000/svg">
<path d="M29.7968 2.60036V9.0002M32.9967 5.80028H26.5969M4.19748 24.9998V28.1997M5.79743 26.5998H2.59752M13.6964 22.5999C13.5536 22.0462 13.265 21.5408 12.8606 21.1365C12.4563 20.7322 11.951 20.4436 11.3973 20.3007L1.58155 17.7696C1.41408 17.722 1.26669 17.6212 1.16174 17.4823C1.05678 17.3434 1 17.1741 1 17C1 16.8259 1.05678 16.6566 1.16174 16.5177C1.26669 16.3788 1.41408 16.278 1.58155 16.2304L11.3973 13.6977C11.9508 13.555 12.456 13.2666 12.8603 12.8626C13.2646 12.4585 13.5533 11.9535 13.6964 11.4001L16.2276 1.58438C16.2746 1.41626 16.3754 1.26814 16.5145 1.16263C16.6536 1.05711 16.8234 1 16.9979 1C17.1725 1 17.3423 1.05711 17.4814 1.16263C17.6205 1.26814 17.7213 1.41626 17.7683 1.58438L20.2979 11.4001C20.4407 11.9538 20.7293 12.4591 21.1336 12.8635C21.538 13.2678 22.0433 13.5564 22.597 13.6993L32.4127 16.2288C32.5815 16.2754 32.7304 16.376 32.8365 16.5153C32.9426 16.6546 33 16.8249 33 17C33 17.1751 32.9426 17.3454 32.8365 17.4847C32.7304 17.624 32.5815 17.7246 32.4127 17.7712L22.597 20.3007C22.0433 20.4436 21.538 20.7322 21.1336 21.1365C20.7293 21.5408 20.4407 22.0462 20.2979 22.5999L17.7667 32.4156C17.7197 32.5837 17.6189 32.7319 17.4798 32.8374C17.3407 32.9429 17.1709 33 16.9963 33C16.8218 33 16.652 32.9429 16.5129 32.8374C16.3738 32.7319 16.273 32.5837 16.226 32.4156L13.6964 22.5999Z" stroke="#4488DA" stroke-width="2" stroke-linecap="round" stroke-linejoin="round"/>
</svg>
