<svg width="34" height="34" viewBox="0 0 34 34" fill="none" xmlns="http://www.w3.org/2000/svg">
<path d="M11.6667 1H2.77778C1.79594 1 1 1.79594 1 2.77778V11.6667C1 12.6485 1.79594 13.4444 2.77778 13.4444H11.6667C12.6485 13.4444 13.4444 12.6485 13.4444 11.6667V2.77778C13.4444 1.79594 12.6485 1 11.6667 1Z" stroke="#4488DA" stroke-width="2" stroke-linecap="round" stroke-linejoin="round"/>
<path d="M31.2222 1H22.3333C21.3515 1 20.5556 1.79594 20.5556 2.77778V11.6667C20.5556 12.6485 21.3515 13.4444 22.3333 13.4444H31.2222C32.2041 13.4444 33 12.6485 33 11.6667V2.77778C33 1.79594 32.2041 1 31.2222 1Z" stroke="#4488DA" stroke-width="2" stroke-linecap="round" stroke-linejoin="round"/>
<path d="M31.2222 20.5556H22.3333C21.3515 20.5556 20.5556 21.3515 20.5556 22.3333V31.2222C20.5556 32.2041 21.3515 33 22.3333 33H31.2222C32.2041 33 33 32.2041 33 31.2222V22.3333C33 21.3515 32.2041 20.5556 31.2222 20.5556Z" stroke="#4488DA" stroke-width="2" stroke-linecap="round" stroke-linejoin="round"/>
<path d="M11.6667 20.5556H2.77778C1.79594 20.5556 1 21.3515 1 22.3333V31.2222C1 32.2041 1.79594 33 2.77778 33H11.6667C12.6485 33 13.4444 32.2041 13.4444 31.2222V22.3333C13.4444 21.3515 12.6485 20.5556 11.6667 20.5556Z" stroke="#4488DA" stroke-width="2" stroke-linecap="round" stroke-linejoin="round"/>
</svg>
