<svg width="41" height="40" viewBox="0 0 41 40" fill="none" xmlns="http://www.w3.org/2000/svg">
<path d="M20.8344 35C29.1186 35 35.8344 28.2843 35.8344 20C35.8344 11.7157 29.1186 5 20.8344 5C12.5501 5 5.83435 11.7157 5.83435 20C5.83435 28.2843 12.5501 35 20.8344 35Z" stroke="#0A4B98" stroke-width="2" stroke-linecap="round" stroke-linejoin="round"/>
<path d="M20.8344 11V29M26.8344 15.5C25.8899 14.2407 24.5731 13.3105 23.0706 12.8411C21.5681 12.3718 19.956 12.3871 18.4626 12.8849C16.9693 13.3827 15.6704 14.3377 14.75 15.6147C13.8296 16.8917 13.3344 18.4259 13.3344 20C13.3344 21.5741 13.8296 23.1083 14.75 24.3853C15.6704 25.6623 16.9693 26.6173 18.4626 27.1151C19.956 27.6129 21.5681 27.6282 23.0706 27.1589C24.5731 26.6895 25.8899 25.7593 26.8344 24.5" stroke="#0A4B98" stroke-width="2" stroke-linecap="round" stroke-linejoin="round"/>
</svg>
