<svg width="123" height="32" viewBox="0 0 123 32" fill="none" xmlns="http://www.w3.org/2000/svg">
<path d="M19.5 8.46667V24.3333M19.5 8.46667C19.5 5.816 19.64 2.89156 17.3575 1.50867C16.5177 1 15.419 1 13.2215 1H9.82067C8.20396 1 7.72784 1.67978 7.72784 3.48889V17.1778C7.72784 18.0613 7.68075 19.0367 8.44202 19.4971C8.72194 19.6667 9.08688 19.6667 9.81806 19.6667H13.5224C16.6315 19.6667 17.7878 21.2782 19.5 24.3333M19.5 8.46667C19.5 5.816 19.3574 2.89156 21.6412 1.50867C22.481 1 23.581 1 25.7785 1H29.1794C30.7948 1 31.2722 1.67822 31.2722 3.48889V17.1778C31.2722 18.0598 31.318 19.0367 30.558 19.4971C30.2794 19.6667 29.9132 19.6667 29.182 19.6667H25.4764C22.3672 19.6667 21.2135 21.2782 19.5 24.3333M7.05515 4.33333C4.97652 4.33333 4.36437 5.01311 4.36437 6.82222V20.5111C4.36437 21.3947 4.30383 22.37 5.2826 22.8304C5.64249 23 6.1117 23 7.05179 23H11.8145C15.812 23 17.2969 24.6116 19.4983 27.6667C21.7014 24.6116 23.1864 23 27.1839 23H31.9483C32.8884 23 33.3592 23 33.7174 22.8304C34.6945 22.37 34.6357 21.3931 34.6357 20.5111V6.82222C34.6357 5.01156 34.0218 4.33333 31.9449 4.33333M19.5 15.1333V31M4.28963 7.66667C1.74908 7.66667 1.0009 8.34644 1.0009 10.1556V23.8444C1.0009 24.728 0.9269 25.7033 2.12318 26.1638C2.56305 26.3333 3.13652 26.3333 4.28552 26.3333H10.1066C14.9924 26.3333 16.8074 27.9449 19.498 31C22.1906 27.9449 24.0056 26.3333 28.8914 26.3333H34.7145C35.8635 26.3333 36.4391 26.3333 36.8769 26.1638C38.0711 25.7033 37.9992 24.7264 37.9992 23.8444V10.1556C37.9992 8.34489 37.2489 7.66667 34.7104 7.66667" stroke="#1C62B8" stroke-width="2" stroke-linecap="round" stroke-linejoin="round"/>
<path d="M118.729 18.7557V19.5133C118.729 20.3506 118.729 21.5601 118.459 23.062L116.856 22.9025C117.061 21.7396 117.113 20.8623 117.125 20.138H112.726V18.7557H118.729ZM115.83 21.5468V23.8595C116.991 23.813 118.184 23.7199 119.28 23.5538L119.37 24.7766C116.946 25.2418 114.201 25.2816 112.174 25.2949L112.033 23.9392C112.687 23.9392 113.425 23.9392 114.201 23.9127V21.5468H115.83ZM121.589 17.8785V21.5601H123V22.9823H121.589V26.9297H119.909V17.8785H121.589ZM121.948 28.4051V29.7608H113.752V26.119H115.394V28.4051H121.948Z" fill="#111F30"/>
<path d="M105.248 20.6165C105.248 22.8892 106.133 25.0956 108.082 25.9728L107.082 27.3285C105.786 26.6706 104.921 25.4677 104.44 23.9791C103.927 25.5608 103.029 26.8566 101.695 27.5411L100.669 26.1589C102.67 25.2285 103.58 22.8892 103.593 20.6165V18.8089H105.248V20.6165ZM110.686 17.8785V30H109.07V23.0487H106.774V21.6797H109.07V17.8785H110.686Z" fill="#111F30"/>
<path d="M99.0011 23.288V24.6304H95.6149V27.2089H100.168V28.5911H89.4837V27.2089H93.9859V24.6304H90.7407V18.7291H98.9113V20.0848H92.3825V23.288H99.0011Z" fill="#111F30"/>
<path d="M87.534 18.5829V19.6728C87.534 20.8025 87.534 22.0386 87.239 23.7266H88.7782V25.0956H84.2247V29.9867H82.5829V25.0956H78.132V23.7266H85.5843C85.8793 22.1649 85.905 20.982 85.905 19.9386H79.3505V18.5829H87.534Z" fill="#111F30"/>
<path d="M76.6185 17.8918V26.7304H74.9895V23.8595H72.3215C71.7571 24.4775 70.9426 24.8563 70.0383 24.8563C68.2682 24.8563 66.9214 23.5272 66.9342 21.7329C66.9214 19.912 68.2682 18.5962 70.0383 18.5829C70.9426 18.5896 71.7507 18.9617 72.3215 19.5797H74.9895V17.8918H76.6185ZM76.9006 28.4051V29.7608H68.8711V25.8399H70.5129V28.4051H76.9006ZM70.0383 20.0981C69.1276 20.0981 68.4735 20.7095 68.4863 21.7329C68.4735 22.743 69.1276 23.3544 70.0383 23.3544C70.8977 23.3544 71.5647 22.743 71.5647 21.7329C71.5647 20.7095 70.8977 20.0981 70.0383 20.0981ZM73.027 20.9354C73.0847 21.188 73.1167 21.4538 73.1167 21.7329C73.1167 21.9987 73.0847 22.2579 73.027 22.5038H74.9895V20.9354H73.027Z" fill="#111F30"/>
<path d="M59.1099 20.643C59.1099 21.8392 59.7769 23.0354 61.252 23.5405L60.5209 24.8165C59.4883 24.4377 58.7828 23.7399 58.366 22.8759C57.9555 23.8263 57.2436 24.5905 56.1726 25.0025L55.4286 23.7532C56.8909 23.1816 57.5579 21.9323 57.5579 20.643V20.5766H55.7493V19.2475H57.5579V17.9981H59.1099V19.2475H60.9057V20.5766H59.1099V20.643ZM65.4592 17.8918V25.2816H63.9071V22.2911H62.9708V25.2551H61.4316V18.0778H62.9708V20.9222H63.9071V17.8918H65.4592ZM65.4592 25.8V29.9734H63.8302V27.169H57.3911V25.8H65.4592Z" fill="#111F30"/>
<path d="M53.9151 17.8785V25.0557H52.2861V22.1981H50.4647V20.8291H52.2861V17.8785H53.9151ZM49.926 25.3215C52.4144 25.3348 53.9407 26.1854 53.9536 27.6608C53.9407 29.1228 52.4144 29.9867 49.926 29.9867C47.4376 29.9867 45.9112 29.1228 45.9112 27.6608C45.9112 26.1854 47.4376 25.3348 49.926 25.3215ZM49.926 26.6241C48.3739 26.6241 47.5402 26.9563 47.5402 27.6608C47.5402 28.3519 48.3739 28.6975 49.926 28.6975C51.478 28.6975 52.3246 28.3519 52.3246 27.6608C52.3246 26.9563 51.478 26.6241 49.926 26.6241ZM50.811 18.6095V19.9652H48.4894C48.5278 21.3741 49.3488 22.7962 51.1702 23.4209L50.3621 24.75C49.073 24.318 48.1879 23.4408 47.6813 22.3443C47.1618 23.5804 46.2319 24.5772 44.8466 25.069L44 23.7266C45.9176 23.062 46.777 21.4804 46.8219 19.9652H44.4746V18.6095H50.811Z" fill="#111F30"/>
<path d="M113.636 2.01329V10.7057H111.995V2.01329H113.636ZM113.944 12.5266V13.8823H105.812V9.82848H107.467V12.5266H113.944ZM107.236 2.78418C109.032 2.78418 110.43 4.06013 110.43 5.82785C110.43 7.63544 109.032 8.8981 107.236 8.8981C105.44 8.8981 104.042 7.63544 104.042 5.82785C104.042 4.06013 105.44 2.78418 107.236 2.78418ZM107.236 4.25949C106.325 4.2462 105.633 4.8443 105.645 5.82785C105.633 6.83797 106.325 7.42278 107.236 7.42278C108.121 7.42278 108.814 6.83797 108.814 5.82785C108.814 4.8443 108.121 4.2462 107.236 4.25949Z" fill="#111F30"/>
<path d="M101.72 2V6.57215H103.439V7.96772H101.72V14.1215H100.104V2H101.72ZM98.3854 3.01013V7.7019H94.6272V9.89494C96.3267 9.88829 97.7313 9.80854 99.2833 9.53608L99.4244 10.8918C97.6415 11.2241 96.0381 11.3038 93.9859 11.3038H92.9982V6.35949H96.7564V4.37911H92.9854V3.01013H98.3854Z" fill="#111F30"/>
<path d="M91.8053 8.23354V9.58924H81.1591V8.23354H85.6484V7.26329C83.5449 7.08386 82.2237 6.18006 82.2237 4.77785C82.2237 3.26266 83.904 2.3057 86.4822 2.3057C89.0347 2.3057 90.715 3.26266 90.7278 4.77785C90.715 6.18671 89.381 7.09051 87.2903 7.26329V8.23354H91.8053ZM90.5996 12.5266V13.8823H82.4418V10.3468H84.0836V12.5266H90.5996ZM86.4822 3.6481C84.866 3.6481 83.9168 4.06013 83.9297 4.77785C83.9168 5.56203 84.866 5.93418 86.4822 5.93418C88.0984 5.93418 89.0347 5.56203 89.0347 4.77785C89.0347 4.06013 88.0984 3.6481 86.4822 3.6481Z" fill="#111F30"/>
<path d="M76.2978 7.40949V8.7519H72.9115V11.3304H77.465V12.7127H66.7803V11.3304H71.2825V8.7519H68.0374V2.85063H76.208V4.20633H69.6792V7.40949H76.2978Z" fill="#111F30"/>
<path d="M65.2411 2V14.0949H63.5865V2H65.2411ZM61.7394 3.26266C61.7394 6.93101 60.4952 9.97468 56.3265 12.0215L55.4671 10.6658C58.4814 9.19051 59.809 7.27658 60.0719 4.59177H56.0956V3.26266H61.7394Z" fill="#111F30"/>
<path d="M53.9151 2.01329V8.97785H52.2861V7.79494H49.6566V6.43924H52.2861V5.28291H49.772C49.0473 7.19684 47.3927 8.51266 44.8209 9.24367L44.1796 7.90127C46.8668 7.17025 48.1815 5.84114 48.4124 4.17975H44.8081V2.82405H50.1953C50.1953 3.21614 50.1697 3.59494 50.1184 3.9538H52.2861V2.01329H53.9151ZM50.0286 9.12405C52.4015 9.12405 53.992 10.0677 54.0049 11.5696C53.992 13.0848 52.4015 14.0418 50.0286 14.0418C47.63 14.0418 46.0266 13.0848 46.0395 11.5696C46.0266 10.0677 47.63 9.12405 50.0286 9.12405ZM50.0286 10.4532C48.5535 10.4399 47.6685 10.8253 47.6685 11.5696C47.6685 12.3139 48.5535 12.6994 50.0286 12.6994C51.478 12.6994 52.363 12.3139 52.363 11.5696C52.363 10.8253 51.478 10.4399 50.0286 10.4532Z" fill="#111F30"/>
</svg>
